<svg width="78" height="97" viewBox="0 0 78 97" fill="none" xmlns="http://www.w3.org/2000/svg">
<path fill-rule="evenodd" clip-rule="evenodd" d="M46.5494 46.6968C47.5808 44.2961 48.015 42.1929 48.2457 40.5542C50.3898 24.8736 37.9051 16.2806 24.6332 12.3399C21.0778 11.2821 15.2697 10.8627 10.8865 12.4532C7.806 13.5695 5.41758 15.6539 4.82048 19.0947C4.15554 22.8432 5.98759 26.7596 8.94593 30.2925C13.2206 35.4057 19.8294 39.7328 23.9819 41.6117C28.7722 43.7776 36.521 46.3207 44.3918 47.811C43.0755 50.3128 41.0806 53.0821 37.9865 55.941C36.6159 57.2166 34.7297 58.3071 32.5856 59.184C30.9707 56.0483 28.6637 53.0919 25.6647 50.4834C23.1406 48.2942 16.9796 44.6932 11.5243 43.588C7.62961 42.8021 4.10131 43.3082 2.22859 46.1213C-0.0919405 49.6182 0.722229 52.8775 2.98848 55.6037C6.17752 59.4442 12.3521 62.1729 16.0025 62.846C20.2501 63.6268 26.5467 62.9024 31.8255 61.0263C36.7245 71.9091 33.1555 84.7099 21.6749 91.7502C21.3357 91.9633 21.2271 92.4179 21.4307 92.7653C21.6478 93.1127 22.1092 93.2212 22.4485 93.0082C34.594 85.5567 38.3936 72.0135 33.2233 60.4917C35.5031 59.5529 37.5251 58.3863 38.9907 57.0246C42.3968 53.8731 44.541 50.8209 45.9116 48.0856C47.3907 48.3397 48.87 48.5528 50.3356 48.716C56.9172 49.4522 63.0917 49.1478 67.1492 47.0302C76.5264 42.1383 79.1319 32.4468 77.3542 22.9866C75.59 13.6175 69.5241 4.51003 61.6669 0.653187C61.3005 0.47365 60.8527 0.625098 60.6763 0.990955C60.4998 1.35695 60.6491 1.79975 61.0155 1.97915C68.4928 5.64913 74.233 14.3438 75.9021 23.2589C77.5577 32.083 75.21 41.1577 66.4707 45.7207C62.6031 47.7306 56.7544 47.9471 50.4985 47.2482C49.1957 47.1027 47.8793 46.9165 46.5494 46.6968ZM31.1877 59.7175C29.6543 56.7941 27.4966 54.0354 24.6876 51.5984C22.2856 49.5142 16.4368 46.0879 11.2257 45.0355C7.99598 44.3829 5.01047 44.6024 3.46345 46.9385C1.56359 49.7877 2.28288 52.4395 4.12845 54.6609C7.08679 58.2417 12.8678 60.7659 16.2739 61.3934C20.2636 62.1293 26.2074 61.468 31.1877 59.7175ZM45.0567 46.4336C46.1152 44.0515 46.5494 41.9669 46.7801 40.354C48.8157 25.4867 36.7924 17.492 24.2126 13.7557C20.9014 12.769 15.4869 12.3581 11.3886 13.8416C8.8238 14.7747 6.77465 16.4748 6.27254 19.3507C5.67545 22.7095 7.42602 26.1788 10.0722 29.3445C14.1976 34.2791 20.5893 38.4528 24.5926 40.2662C29.3829 42.4323 37.1723 44.9807 45.0567 46.4336Z" fill="#1BC522"/>
<path fill-rule="evenodd" clip-rule="evenodd" d="M22.6006 91.9637C22.872 91.2608 23.6455 89.2347 23.7541 88.9253C24.0526 88.0568 24.0798 87.5792 24.0527 87.0906C24.0255 86.6984 23.9441 86.2954 23.9848 85.5572C24.012 85.1501 23.6862 84.804 23.2791 84.7836C22.872 84.7633 22.5327 85.0781 22.5056 85.4852C22.4785 86.1543 22.5192 86.579 22.5599 86.9509C22.6006 87.3797 22.6142 87.7135 22.3564 88.445C22.2342 88.8019 21.3386 90.7139 21.1079 91.6638C20.9857 92.1592 21.0536 92.531 21.1486 92.6938C21.2843 92.9272 21.5286 93.1471 21.9086 93.2977C22.3971 93.4891 23.2113 93.6003 24.1205 93.7455C24.9755 93.8799 25.9389 94.0509 26.7803 94.4119C27.4859 94.7199 28.0967 95.165 28.3952 95.906C28.5445 96.2846 28.9652 96.4718 29.3451 96.3226C29.7251 96.1733 29.915 95.7431 29.7658 95.3645C29.3315 94.2436 28.436 93.523 27.3639 93.0575C26.414 92.6463 25.3283 92.4387 24.3513 92.2867C23.7677 92.1931 23.2249 92.1212 22.8042 92.0248C22.7363 92.0099 22.6685 91.9868 22.6006 91.9637Z" fill="#1BC522"/>
</svg>
