<svg width="203" height="223" viewBox="0 0 203 223" fill="none" xmlns="http://www.w3.org/2000/svg">
<path fill-rule="evenodd" clip-rule="evenodd" d="M63.6425 128.675C65.4345 152.611 71.4203 177.456 85.7445 196.695C90.9557 203.696 97.4259 209.119 104 214.73C104.46 215.124 105.157 215.069 105.553 214.607C105.948 214.143 105.894 213.447 105.43 213.052C98.9833 207.548 92.6239 202.245 87.5135 195.379C73.3924 176.412 67.5607 151.893 65.8241 128.301L66.1849 128.245C70.1035 127.648 74.0055 123.949 77.2405 118.73C81.8786 111.249 85.2508 100.704 85.789 92.8193C86.0301 89.2762 85.6861 86.2506 84.705 84.2038C83.9411 82.6074 82.7945 81.5538 81.2813 81.1429C78.0563 80.2695 74.888 82.4096 72.2224 86.459C66.6452 94.9264 62.8989 111.674 63.1429 119.294C63.2199 121.674 63.3329 124.072 63.49 126.479C62.8036 126.603 62.131 126.721 61.4718 126.807C59.5928 127.045 57.794 127.011 55.8885 125.941C52.9206 124.271 50.7379 121.386 49.0883 118.057C46.5174 112.861 45.2625 106.577 44.5799 101.796C40.7799 75.1663 50.5762 54.4708 63.4727 38.4588C76.4999 22.2903 92.686 10.8642 101.458 2.91706C101.91 2.50918 101.942 1.81251 101.534 1.36049C101.126 0.908471 100.428 0.874276 99.9774 1.2846C91.1482 9.28229 74.8687 20.7994 61.7568 37.0776C48.5142 53.5122 38.4968 74.7707 42.3953 102.106C43.106 107.087 44.434 113.624 47.1116 119.035C48.9668 122.78 51.4686 125.984 54.809 127.864C57.8072 129.549 60.5743 129.205 63.6425 128.675ZM65.6742 126.093L65.8542 126.067C69.2796 125.545 72.5376 122.133 75.3655 117.568C79.8225 110.38 83.071 100.249 83.5872 92.6683C83.7658 90.0692 83.6244 87.7828 83.0689 86.0491C82.6089 84.6196 81.8814 83.5899 80.7048 83.2732C79.5948 82.9688 78.5201 83.256 77.4903 83.9352C76.2799 84.7306 75.1415 86.0351 74.0635 87.67C68.7052 95.8069 65.1116 111.901 65.3468 119.223C65.4216 121.497 65.5283 123.789 65.6742 126.093Z" fill="#1BC522"/>
<path fill-rule="evenodd" clip-rule="evenodd" d="M108.383 215.238C107.934 215.413 107.259 215.464 106.533 215.51C104.803 215.621 102.798 215.485 101.85 215.46C101.24 215.445 100.736 215.927 100.719 216.535C100.704 217.145 101.184 217.651 101.794 217.666C102.955 217.695 105.629 217.871 107.593 217.626C108.647 217.494 109.52 217.216 110.026 216.828C110.89 216.169 110.996 215.083 110.044 213.677C108.916 212.014 106.052 209.422 105.382 206.14C105.261 205.545 104.675 205.159 104.081 205.282C103.483 205.404 103.099 205.986 103.221 206.584C103.862 209.712 106.205 212.332 107.664 214.172C107.94 214.522 108.221 214.97 108.383 215.238Z" fill="#1BC522"/>
</svg>
