<svg width="194" height="190" viewBox="0 0 194 190" fill="none" xmlns="http://www.w3.org/2000/svg">
<path d="M0 53.4249C0 23.9191 23.9774 0 53.5549 0H139.838C169.415 0 193.393 23.9191 193.393 53.4249V136.575C193.393 166.081 169.415 190 139.838 190H53.5549C23.9774 190 0 166.081 0 136.575V53.4249Z" fill="white"/>
<path d="M3.39307 54.9096C3.39307 26.4577 26.5292 3.39282 55.0689 3.39282H138.324C166.864 3.39282 190 26.4577 190 54.9096V135.09C190 163.542 166.864 186.607 138.324 186.607H55.0689C26.5292 186.607 3.39307 163.542 3.39307 135.09V54.9096Z" fill="#9E1CF8"/>
<path d="M130.992 62.176C134.32 62.176 136.752 62.4747 138.288 63.072C139.909 63.584 141.061 64.48 141.744 65.76C142.683 67.7227 143.152 70.368 143.152 73.696V123.232C143.152 132.192 139.909 140.128 133.424 147.04C126.939 153.867 118.661 157.28 108.592 157.28C102.96 157.28 97.9679 156.043 93.6159 153.568C89.6906 151.435 86.9599 149.515 85.4239 147.808L84.3999 146.784C81.4133 143.627 79.9199 140.939 79.9199 138.72C79.9199 136.416 81.4133 133.728 84.3999 130.656C87.3866 127.584 90.0319 126.048 92.3359 126.048C94.6399 126.048 97.1999 127.456 100.016 130.272C102.832 133.088 105.861 134.496 109.104 134.496C112.432 134.496 115.163 133.387 117.296 131.168C119.429 128.949 120.496 126.005 120.496 122.336V74.464C120.496 69.344 121.349 66.0587 123.056 64.608C125.019 62.9867 127.664 62.176 130.992 62.176Z" fill="black"/>
<path d="M126.992 58.176C130.32 58.176 132.752 58.4747 134.288 59.072C135.909 59.584 137.061 60.48 137.744 61.76C138.683 63.7227 139.152 66.368 139.152 69.696V119.232C139.152 128.192 135.909 136.128 129.424 143.04C122.939 149.867 114.661 153.28 104.592 153.28C98.9599 153.28 93.9679 152.043 89.6159 149.568C85.6906 147.435 82.9599 145.515 81.4239 143.808L80.3999 142.784C77.4133 139.627 75.9199 136.939 75.9199 134.72C75.9199 132.416 77.4133 129.728 80.3999 126.656C83.3866 123.584 86.0319 122.048 88.3359 122.048C90.6399 122.048 93.1999 123.456 96.0159 126.272C98.8319 129.088 101.861 130.496 105.104 130.496C108.432 130.496 111.163 129.387 113.296 127.168C115.429 124.949 116.496 122.005 116.496 118.336V70.464C116.496 65.344 117.349 62.0587 119.056 60.608C121.019 58.9867 123.664 58.176 126.992 58.176Z" fill="white"/>
<path d="M65.0194 121C62.4289 121 60.2134 120.121 58.3728 118.364C56.6003 116.539 55.7141 114.274 55.7141 111.57C55.7141 110.624 55.8164 109.779 56.0209 109.035C56.2254 108.224 56.5662 107.548 57.0434 107.007L85.4706 67.9698H65.4284C63.9287 67.9698 62.4289 67.8684 60.9292 67.6656C59.4294 67.3952 58.1682 66.6517 57.1457 65.4349C56.1913 64.1506 55.7141 62.0212 55.7141 59.047C55.7141 55.9375 56.1572 53.7406 57.0434 52.4562C57.9978 51.1719 59.1908 50.3945 60.6224 50.1241C62.1221 49.8537 63.6219 49.7185 65.1217 49.7185H103.365C105.956 49.7185 108.137 50.6311 109.91 52.4562C111.75 54.2813 112.671 56.5458 112.671 59.2497C112.671 60.1961 112.568 61.0749 112.364 61.886C112.159 62.6296 111.819 63.2718 111.341 63.8126L82.9142 102.85H104.797C106.297 102.85 107.728 102.985 109.092 103.256C110.523 103.526 111.682 104.303 112.568 105.588C113.523 106.805 114 108.866 114 111.773C114 114.815 113.523 116.978 112.568 118.262C111.682 119.547 110.523 120.324 109.092 120.594C107.66 120.865 106.16 121 104.592 121H65.0194Z" fill="black"/>
<path d="M60.3053 118.281C57.7148 118.281 55.4993 117.403 53.6587 115.645C51.8862 113.82 51 111.556 51 108.852C51 107.905 51.1023 107.06 51.3068 106.317C51.5113 105.506 51.8521 104.83 52.3293 104.289L80.7565 65.2513H60.7143C59.2146 65.2513 57.7148 65.1499 56.2151 64.9471C54.7153 64.6767 53.4541 63.9332 52.4316 62.7164C51.4772 61.4321 51 59.3027 51 56.3284C51 53.219 51.4431 51.022 52.3293 49.7377C53.2837 48.4533 54.4767 47.676 55.9083 47.4056C57.408 47.1352 58.9078 47 60.4075 47H98.6513C101.242 47 103.423 47.9126 105.196 49.7377C107.036 51.5628 107.957 53.8273 107.957 56.5312C107.957 57.4776 107.854 58.3564 107.65 59.1675C107.445 59.9111 107.104 60.5533 106.627 61.0941L78.2001 100.132H100.083C101.583 100.132 103.014 100.267 104.378 100.537C105.809 100.808 106.968 101.585 107.854 102.869C108.809 104.086 109.286 106.148 109.286 109.054C109.286 112.096 108.809 114.259 107.854 115.544C106.968 116.828 105.809 117.606 104.378 117.876C102.946 118.146 101.446 118.281 99.8783 118.281H60.3053Z" fill="white"/>
</svg>
