<svg width="57" height="56" viewBox="0 0 57 56" fill="none" xmlns="http://www.w3.org/2000/svg">
<path d="M0 15.7463C0 7.04985 7.06701 0 15.7846 0H41.2154C49.933 0 57 7.04985 57 15.7463V40.2537C57 48.9502 49.933 56 41.2154 56H15.7846C7.06701 56 0 48.9501 0 40.2537V15.7463Z" fill="white"/>
<path d="M1 16.1839C1 7.79807 7.81905 1 16.2308 1H40.7692C49.181 1 56 7.79807 56 16.1839V39.8161C56 48.2019 49.181 55 40.7692 55H16.2308C7.81905 55 1 48.2019 1 39.8161V16.1839Z" fill="#9E1CF8"/>
<path d="M29.5003 33.0819H39.3393C40.8737 33.0819 41.9669 33.2731 42.619 33.6555C43.3095 34.0379 43.7698 34.5924 44 35.319C44.2301 36.0456 44.3452 37.0016 44.3452 38.1871C44.3452 39.3725 44.2301 40.3286 44 41.0551C43.7698 41.7817 43.367 42.298 42.7916 42.6039C42.2163 42.8716 41.6984 43.0437 41.2381 43.1202C40.8162 43.1584 40.1641 43.1775 39.2818 43.1775H18.5104C17.1679 43.1775 15.9979 42.6804 15.0006 41.6861C14.0032 40.6919 13.5046 39.5064 13.5046 38.1297C13.5046 36.753 14.0032 35.5867 15.0006 34.6307C15.9979 33.6364 17.5323 32.2215 19.6036 30.3859C21.675 28.5503 23.5546 26.906 25.2424 25.4528C26.9302 23.9614 27.8508 23.1393 28.0043 22.9863H19.8913C17.7049 22.9863 16.324 22.623 15.7486 21.8964C15.0965 21.0551 14.7704 19.9461 14.7704 18.5695C14.7704 17.1928 14.8663 16.1794 15.0581 15.5293C15.2499 14.841 15.4801 14.3438 15.7486 14.0379C16.0171 13.6937 16.4007 13.4261 16.8993 13.2349C17.5514 13.0436 18.5488 12.948 19.8913 12.948H38.5913C39.9339 12.948 41.1039 13.4261 42.1012 14.3821C43.0985 15.3381 43.5972 16.5427 43.5972 17.9958C43.5972 19.4108 43.0218 20.6727 41.871 21.7817C40.7203 22.8907 36.5967 26.6574 29.5003 33.0819Z" fill="#1E1E1E"/>
<path d="M27.774 31.9887H37.0343C38.4784 31.9887 39.5073 32.1686 40.1211 32.5285C40.7709 32.8884 41.2042 33.4103 41.4208 34.0942C41.6374 34.778 41.7457 35.6778 41.7457 36.7935C41.7457 37.9093 41.6374 38.809 41.4208 39.4929C41.2042 40.1767 40.8251 40.6626 40.2835 40.9505C39.742 41.2025 39.2546 41.3644 38.8214 41.4364C38.4243 41.4724 37.8105 41.4904 36.9802 41.4904H17.4306C16.167 41.4904 15.0659 41.0225 14.1272 40.0867C13.1886 39.151 12.7192 38.0352 12.7192 36.7395C12.7192 35.4438 13.1886 34.3461 14.1272 33.4463C15.0659 32.5105 16.51 31.1789 18.4595 29.4513C20.4091 27.7237 22.1781 26.176 23.7666 24.8084C25.3551 23.4047 26.2216 22.6309 26.366 22.4869H18.7303C16.6725 22.4869 15.3728 22.145 14.8312 21.4612C14.2175 20.6693 13.9106 19.6256 13.9106 18.3299C13.9106 17.0342 14.0009 16.0804 14.1814 15.4686C14.3619 14.8207 14.5785 14.3528 14.8312 14.0649C15.0839 13.741 15.445 13.489 15.9143 13.3091C16.5281 13.1291 17.4667 13.0391 18.7303 13.0391H36.3303C37.5939 13.0391 38.695 13.489 39.6337 14.3888C40.5724 15.2886 41.0417 16.4223 41.0417 17.79C41.0417 19.1217 40.5002 20.3094 39.4171 21.3532C38.334 22.3969 34.453 25.9421 27.774 31.9887Z" fill="white"/>
</svg>
