<svg width="198" height="58" viewBox="0 0 198 58" fill="none" xmlns="http://www.w3.org/2000/svg">
<path d="M0 18.8084C0 11.6376 5.82719 5.82458 13.0154 5.82458H33.9846C41.1728 5.82458 47 11.6376 47 18.8084V39.0163C47 46.187 41.1728 52 33.9846 52H13.0154C5.82719 52 0 46.187 0 39.0163V18.8084Z" fill="white"/>
<path d="M0.824463 19.1692C0.824463 12.2546 6.44719 6.64917 13.3832 6.64917H33.6166C40.5526 6.64917 46.1753 12.2546 46.1753 19.1692V38.6554C46.1753 45.5701 40.5526 51.1755 33.6166 51.1755H13.3832C6.44719 51.1755 0.824463 45.5701 0.824463 38.6554V19.1692Z" fill="#9E1CF8"/>
<path d="M24.3247 33.1027H32.4376C33.7028 33.1027 34.6042 33.2603 35.1419 33.5756C35.7112 33.891 36.0908 34.3482 36.2806 34.9473C36.4703 35.5464 36.5652 36.3347 36.5652 37.3122C36.5652 38.2897 36.4703 39.078 36.2806 39.6771C36.0908 40.2762 35.7587 40.7019 35.2842 40.9541C34.8098 41.1749 34.3828 41.3168 34.0033 41.3798C33.6553 41.4114 33.1176 41.4271 32.3902 41.4271H15.2629C14.1558 41.4271 13.1912 41.0172 12.3688 40.1974C11.5464 39.3775 11.1352 38.4 11.1352 37.2649C11.1352 36.1297 11.5464 35.168 12.3688 34.3797C13.1912 33.5599 14.4563 32.3932 16.1643 30.8797C17.8723 29.3661 19.4221 28.0102 20.8138 26.812C22.2055 25.5823 22.9646 24.9043 23.0911 24.7782H16.4015C14.5987 24.7782 13.46 24.4787 12.9856 23.8796C12.4479 23.1859 12.179 22.2714 12.179 21.1363C12.179 20.0011 12.2581 19.1655 12.4162 18.6295C12.5744 18.0619 12.7642 17.652 12.9856 17.3997C13.207 17.1159 13.5233 16.8952 13.9344 16.7376C14.4721 16.5799 15.2945 16.5011 16.4015 16.5011H31.8208C32.9279 16.5011 33.8926 16.8952 34.7149 17.6835C35.5373 18.4718 35.9485 19.4651 35.9485 20.6633C35.9485 21.83 35.474 22.8705 34.5251 23.785C33.5763 24.6994 30.1761 27.8053 24.3247 33.1027Z" fill="#1E1E1E"/>
<path d="M22.9013 32.2012H30.537C31.7277 32.2012 32.5761 32.3496 33.0822 32.6464C33.618 32.9432 33.9753 33.3735 34.1539 33.9373C34.3325 34.5012 34.4218 35.2431 34.4218 36.1631C34.4218 37.0831 34.3325 37.825 34.1539 38.3889C33.9753 38.9528 33.6627 39.3534 33.2162 39.5908C32.7696 39.7986 32.3677 39.9321 32.0105 39.9915C31.6831 40.0212 31.177 40.036 30.4923 40.036H14.3725C13.3306 40.036 12.4227 39.6502 11.6487 38.8786C10.8747 38.107 10.4877 37.187 10.4877 36.1186C10.4877 35.0502 10.8747 34.1451 11.6487 33.4032C12.4227 32.6315 13.6134 31.5335 15.2209 30.109C16.8284 28.6845 18.2871 27.4084 19.5969 26.2806C20.9068 25.1232 21.6212 24.4852 21.7403 24.3664H15.4442C13.7474 24.3664 12.6757 24.0845 12.2292 23.5206C11.7231 22.8678 11.4701 22.0071 11.4701 20.9387C11.4701 19.8704 11.5445 19.0839 11.6933 18.5794C11.8422 18.0452 12.0208 17.6594 12.2292 17.422C12.4375 17.1549 12.7352 16.9472 13.1222 16.7988C13.6283 16.6504 14.4023 16.5762 15.4442 16.5762H29.9565C30.9984 16.5762 31.9063 16.9472 32.6803 17.6891C33.4543 18.431 33.8413 19.3658 33.8413 20.4936C33.8413 21.5916 33.3948 22.571 32.5017 23.4316C31.6086 24.2923 28.4085 27.2155 22.9013 32.2012Z" fill="white"/>
<path d="M70.1142 11.816C71.3622 11.816 72.2742 11.928 72.8502 12.152C73.4582 12.344 73.8902 12.68 74.1462 13.16C74.4982 13.896 74.6742 14.888 74.6742 16.136V34.712C74.6742 38.072 73.4582 41.048 71.0262 43.64C68.5942 46.2 65.4902 47.48 61.7142 47.48C59.6022 47.48 57.7302 47.016 56.0982 46.088C54.6262 45.288 53.6022 44.568 53.0262 43.928L52.6422 43.544C51.5222 42.36 50.9622 41.352 50.9622 40.52C50.9622 39.656 51.5222 38.648 52.6422 37.496C53.7622 36.344 54.7542 35.768 55.6182 35.768C56.4822 35.768 57.4422 36.296 58.4982 37.352C59.5542 38.408 60.6902 38.936 61.9062 38.936C63.1542 38.936 64.1782 38.52 64.9782 37.688C65.7782 36.856 66.1782 35.752 66.1782 34.376V16.424C66.1782 14.504 66.4982 13.272 67.1382 12.728C67.8742 12.12 68.8662 11.816 70.1142 11.816ZM89.7379 46.904C86.5059 46.904 83.8179 45.688 81.6739 43.256C79.5619 40.792 78.5059 37.8 78.5059 34.28V25.88C78.5059 25.112 78.5219 24.552 78.5539 24.2C78.6179 23.848 78.7619 23.432 78.9859 22.952C79.4339 22.088 80.6819 21.656 82.7299 21.656C84.9699 21.656 86.2819 22.264 86.6659 23.48C86.8579 23.992 86.9539 24.808 86.9539 25.928V34.328C86.9539 35.64 87.3219 36.664 88.0579 37.4C88.8259 38.136 89.8339 38.504 91.0819 38.504C92.3619 38.504 93.3859 38.12 94.1539 37.352C94.9539 36.584 95.3539 35.576 95.3539 34.328V25.832C95.3539 25.096 95.3699 24.552 95.4019 24.2C95.4659 23.816 95.6259 23.384 95.8819 22.904C96.2979 22.072 97.5299 21.656 99.5779 21.656C101.594 21.656 102.826 22.088 103.274 22.952C103.498 23.432 103.626 23.864 103.658 24.248C103.722 24.6 103.754 25.144 103.754 25.88V42.872C103.754 43.576 103.722 44.12 103.658 44.504C103.626 44.856 103.482 45.256 103.226 45.704C102.746 46.536 101.514 46.952 99.5299 46.952C97.5779 46.952 96.3779 46.568 95.9299 45.8C95.6099 45.256 95.4499 44.6 95.4499 43.832C95.3219 44.056 95.0339 44.376 94.5859 44.792C94.1379 45.208 93.7059 45.56 93.2899 45.848C92.2019 46.552 91.0179 46.904 89.7379 46.904ZM121.679 21.704C124.879 21.704 127.535 22.936 129.647 25.4C131.791 27.832 132.863 30.808 132.863 34.328V42.776C132.863 43.512 132.831 44.072 132.767 44.456C132.735 44.808 132.607 45.208 132.383 45.656C131.935 46.52 130.687 46.952 128.639 46.952C126.367 46.952 125.055 46.36 124.703 45.176C124.511 44.632 124.415 43.816 124.415 42.728V34.28C124.415 32.968 124.031 31.944 123.263 31.208C122.527 30.472 121.519 30.104 120.239 30.104C118.991 30.104 117.967 30.488 117.167 31.256C116.399 32.024 116.015 33.032 116.015 34.28V42.776C116.015 43.512 115.983 44.072 115.919 44.456C115.887 44.808 115.743 45.208 115.487 45.656C115.071 46.52 113.839 46.952 111.791 46.952C109.775 46.952 108.543 46.52 108.095 45.656C107.871 45.176 107.727 44.76 107.663 44.408C107.631 44.024 107.615 43.464 107.615 42.728V25.736C107.615 25.032 107.631 24.504 107.663 24.152C107.727 23.768 107.887 23.352 108.143 22.904C108.591 22.104 109.823 21.704 111.839 21.704C113.791 21.704 114.991 22.072 115.439 22.808C115.759 23.352 115.919 24.008 115.919 24.776C116.047 24.552 116.335 24.232 116.783 23.816C117.231 23.4 117.663 23.064 118.079 22.808C119.167 22.072 120.367 21.704 121.679 21.704ZM136.725 25.928C136.725 25.192 136.741 24.648 136.773 24.296C136.837 23.912 136.981 23.48 137.205 23C137.653 22.168 138.901 21.752 140.949 21.752C142.485 21.752 143.573 22.024 144.213 22.568C144.757 23.016 145.045 23.704 145.077 24.632C145.109 24.952 145.125 25.416 145.125 26.024V42.824C145.125 43.56 145.093 44.12 145.029 44.504C144.997 44.856 144.853 45.272 144.597 45.752C144.181 46.584 142.949 47 140.901 47C138.885 47 137.653 46.568 137.205 45.704C136.981 45.224 136.837 44.808 136.773 44.456C136.741 44.104 136.725 43.544 136.725 42.776V25.928ZM144.597 17.048C144.373 17.496 143.957 17.816 143.349 18.008C142.741 18.2 141.925 18.296 140.901 18.296C139.909 18.296 139.109 18.2 138.501 18.008C137.893 17.816 137.461 17.48 137.205 17C136.981 16.52 136.837 16.104 136.773 15.752C136.741 15.368 136.725 14.808 136.725 14.072C136.725 13.336 136.741 12.792 136.773 12.44C136.837 12.056 136.981 11.64 137.205 11.192C137.653 10.328 138.901 9.896 140.949 9.896C142.965 9.896 144.181 10.328 144.597 11.192C144.853 11.672 144.997 12.104 145.029 12.488C145.093 12.84 145.125 13.384 145.125 14.12C145.125 14.856 145.093 15.416 145.029 15.8C144.997 16.152 144.853 16.568 144.597 17.048ZM148.239 34.376C148.239 30.536 149.583 27.368 152.271 24.872C154.959 22.376 158.031 21.128 161.487 21.128C164.943 21.128 167.999 22.376 170.655 24.872C173.311 27.336 174.639 30.488 174.639 34.328C174.639 36.984 173.951 39.352 172.575 41.432C171.199 43.48 169.519 45 167.535 45.992C165.583 46.952 163.551 47.432 161.439 47.432C159.327 47.432 157.279 46.92 155.295 45.896C153.311 44.84 151.631 43.304 150.255 41.288C148.911 39.24 148.239 36.936 148.239 34.376ZM158.271 37.832C159.295 38.6 160.335 38.984 161.391 38.984C162.447 38.984 163.503 38.584 164.559 37.784C165.615 36.984 166.143 35.8 166.143 34.232C166.143 32.664 165.647 31.496 164.655 30.728C163.663 29.96 162.591 29.576 161.439 29.576C160.287 29.576 159.215 29.976 158.223 30.776C157.231 31.576 156.735 32.76 156.735 34.328C156.735 35.864 157.247 37.032 158.271 37.832ZM194.924 21.992C195.532 22.184 196.028 22.52 196.412 23C196.828 23.448 197.036 24.184 197.036 25.208C197.036 26.232 196.732 27.352 196.124 28.568C195.516 29.784 194.636 30.392 193.484 30.392C192.908 30.392 192.348 30.264 191.804 30.008C191.292 29.752 190.604 29.624 189.74 29.624C188.876 29.624 188.06 29.928 187.292 30.536C186.556 31.144 186.188 31.88 186.188 32.744V42.824C186.188 43.56 186.156 44.12 186.092 44.504C186.06 44.856 185.916 45.272 185.66 45.752C185.18 46.584 183.932 47 181.916 47C180.38 47 179.276 46.728 178.604 46.184C178.092 45.736 177.804 45.048 177.74 44.12C177.74 43.8 177.74 43.336 177.74 42.728V25.88C177.74 25.144 177.756 24.6 177.788 24.248C177.852 23.864 177.996 23.448 178.22 23C178.668 22.136 179.916 21.704 181.964 21.704C183.884 21.704 185.084 22.072 185.564 22.808C185.916 23.32 186.092 23.848 186.092 24.392C186.252 24.168 186.476 23.896 186.764 23.576C187.084 23.256 187.74 22.824 188.732 22.28C189.724 21.736 190.588 21.464 191.324 21.464C192.092 21.464 192.732 21.512 193.244 21.608C193.756 21.672 194.316 21.8 194.924 21.992Z" fill="white"/>
</svg>
