<svg width="192" height="56" viewBox="0 0 192 56" fill="none" xmlns="http://www.w3.org/2000/svg">
<path d="M85.5952 13.68C86.6352 13.68 87.3952 13.7733 87.8752 13.96C88.3818 14.12 88.7418 14.4 88.9552 14.8C89.2485 15.4133 89.3952 16.24 89.3952 17.28V32.76C89.3952 35.56 88.3818 38.04 86.3552 40.2C84.3285 42.3333 81.7418 43.4 78.5952 43.4C76.8352 43.4 75.2752 43.0133 73.9152 42.24C72.6885 41.5733 71.8352 40.9733 71.3552 40.44L71.0352 40.12C70.1018 39.1333 69.6352 38.2933 69.6352 37.6C69.6352 36.88 70.1018 36.04 71.0352 35.08C71.9685 34.12 72.7952 33.64 73.5152 33.64C74.2352 33.64 75.0352 34.08 75.9152 34.96C76.7952 35.84 77.7418 36.28 78.7552 36.28C79.7952 36.28 80.6485 35.9333 81.3152 35.24C81.9818 34.5467 82.3152 33.6267 82.3152 32.48V17.52C82.3152 15.92 82.5818 14.8933 83.1152 14.44C83.7285 13.9333 84.5552 13.68 85.5952 13.68Z" fill="white"/>
<path d="M101.948 42.92C99.2549 42.92 97.0149 41.9067 95.2283 39.88C93.4683 37.8267 92.5883 35.3333 92.5883 32.4V25.4C92.5883 24.76 92.6016 24.2933 92.6283 24C92.6816 23.7067 92.8016 23.36 92.9883 22.96C93.3616 22.24 94.4016 21.88 96.1083 21.88C97.975 21.88 99.0683 22.3867 99.3883 23.4C99.5483 23.8267 99.6283 24.5067 99.6283 25.44V32.44C99.6283 33.5333 99.9349 34.3867 100.548 35C101.188 35.6133 102.028 35.92 103.068 35.92C104.135 35.92 104.988 35.6 105.628 34.96C106.295 34.32 106.628 33.48 106.628 32.44V25.36C106.628 24.7467 106.642 24.2933 106.668 24C106.722 23.68 106.855 23.32 107.068 22.92C107.415 22.2267 108.442 21.88 110.148 21.88C111.828 21.88 112.855 22.24 113.228 22.96C113.415 23.36 113.522 23.72 113.548 24.04C113.602 24.3333 113.628 24.7867 113.628 25.4V39.56C113.628 40.1467 113.602 40.6 113.548 40.92C113.522 41.2133 113.402 41.5467 113.188 41.92C112.788 42.6133 111.762 42.96 110.108 42.96C108.482 42.96 107.482 42.64 107.108 42C106.842 41.5467 106.708 41 106.708 40.36C106.602 40.5467 106.362 40.8133 105.988 41.16C105.615 41.5067 105.255 41.8 104.908 42.04C104.002 42.6267 103.015 42.92 101.948 42.92Z" fill="white"/>
<path d="M128.566 21.92C131.233 21.92 133.446 22.9467 135.206 25C136.993 27.0267 137.886 29.5067 137.886 32.44V39.48C137.886 40.0933 137.859 40.56 137.806 40.88C137.779 41.1733 137.673 41.5067 137.486 41.88C137.113 42.6 136.073 42.96 134.366 42.96C132.473 42.96 131.379 42.4667 131.086 41.48C130.926 41.0267 130.846 40.3467 130.846 39.44V32.4C130.846 31.3067 130.526 30.4533 129.886 29.84C129.273 29.2267 128.433 28.92 127.366 28.92C126.326 28.92 125.473 29.24 124.806 29.88C124.166 30.52 123.846 31.36 123.846 32.4V39.48C123.846 40.0933 123.819 40.56 123.766 40.88C123.739 41.1733 123.619 41.5067 123.406 41.88C123.059 42.6 122.033 42.96 120.326 42.96C118.646 42.96 117.619 42.6 117.246 41.88C117.059 41.48 116.939 41.1333 116.886 40.84C116.859 40.52 116.846 40.0533 116.846 39.44V25.28C116.846 24.6933 116.859 24.2533 116.886 23.96C116.939 23.64 117.073 23.2933 117.286 22.92C117.659 22.2533 118.686 21.92 120.366 21.92C121.993 21.92 122.993 22.2267 123.366 22.84C123.633 23.2933 123.766 23.84 123.766 24.48C123.873 24.2933 124.113 24.0267 124.486 23.68C124.859 23.3333 125.219 23.0533 125.566 22.84C126.473 22.2267 127.473 21.92 128.566 21.92Z" fill="white"/>
<path d="M141.104 25.44C141.104 24.8267 141.117 24.3733 141.144 24.08C141.197 23.76 141.317 23.4 141.504 23C141.877 22.3067 142.917 21.96 144.624 21.96C145.904 21.96 146.811 22.1867 147.344 22.64C147.797 23.0133 148.037 23.5867 148.064 24.36C148.091 24.6267 148.104 25.0133 148.104 25.52V39.52C148.104 40.1333 148.077 40.6 148.024 40.92C147.997 41.2133 147.877 41.56 147.664 41.96C147.317 42.6533 146.291 43 144.584 43C142.904 43 141.877 42.64 141.504 41.92C141.317 41.52 141.197 41.1733 141.144 40.88C141.117 40.5867 141.104 40.12 141.104 39.48V25.44ZM147.664 18.04C147.477 18.4133 147.131 18.68 146.624 18.84C146.117 19 145.437 19.08 144.584 19.08C143.757 19.08 143.091 19 142.584 18.84C142.077 18.68 141.717 18.4 141.504 18C141.317 17.6 141.197 17.2533 141.144 16.96C141.117 16.64 141.104 16.1733 141.104 15.56C141.104 14.9467 141.117 14.4933 141.144 14.2C141.197 13.88 141.317 13.5333 141.504 13.16C141.877 12.44 142.917 12.08 144.624 12.08C146.304 12.08 147.317 12.44 147.664 13.16C147.877 13.56 147.997 13.92 148.024 14.24C148.077 14.5333 148.104 14.9867 148.104 15.6C148.104 16.2133 148.077 16.68 148.024 17C147.997 17.2933 147.877 17.64 147.664 18.04Z" fill="white"/>
<path d="M150.699 32.48C150.699 29.28 151.819 26.64 154.059 24.56C156.299 22.48 158.859 21.44 161.739 21.44C164.619 21.44 167.166 22.48 169.379 24.56C171.593 26.6133 172.699 29.24 172.699 32.44C172.699 34.6533 172.126 36.6267 170.979 38.36C169.833 40.0667 168.433 41.3333 166.779 42.16C165.153 42.96 163.459 43.36 161.699 43.36C159.939 43.36 158.233 42.9333 156.579 42.08C154.926 41.2 153.526 39.92 152.379 38.24C151.259 36.5333 150.699 34.6133 150.699 32.48ZM159.059 35.36C159.913 36 160.779 36.32 161.659 36.32C162.539 36.32 163.419 35.9867 164.299 35.32C165.179 34.6533 165.619 33.6667 165.619 32.36C165.619 31.0533 165.206 30.08 164.379 29.44C163.553 28.8 162.659 28.48 161.699 28.48C160.739 28.48 159.846 28.8133 159.019 29.48C158.193 30.1467 157.779 31.1333 157.779 32.44C157.779 33.72 158.206 34.6933 159.059 35.36Z" fill="white"/>
<path d="M189.604 22.16C190.11 22.32 190.524 22.6 190.844 23C191.19 23.3733 191.364 23.9867 191.364 24.84C191.364 25.6933 191.11 26.6267 190.604 27.64C190.097 28.6533 189.364 29.16 188.404 29.16C187.924 29.16 187.457 29.0533 187.004 28.84C186.577 28.6267 186.004 28.52 185.284 28.52C184.564 28.52 183.884 28.7733 183.244 29.28C182.63 29.7867 182.324 30.4 182.324 31.12V39.52C182.324 40.1333 182.297 40.6 182.244 40.92C182.217 41.2133 182.097 41.56 181.884 41.96C181.484 42.6533 180.444 43 178.764 43C177.484 43 176.564 42.7733 176.004 42.32C175.577 41.9467 175.337 41.3733 175.284 40.6C175.284 40.3333 175.284 39.9467 175.284 39.44V25.4C175.284 24.7867 175.297 24.3333 175.324 24.04C175.377 23.72 175.497 23.3733 175.684 23C176.057 22.28 177.097 21.92 178.804 21.92C180.404 21.92 181.404 22.2267 181.804 22.84C182.097 23.2667 182.244 23.7067 182.244 24.16C182.377 23.9733 182.564 23.7467 182.804 23.48C183.07 23.2133 183.617 22.8533 184.444 22.4C185.27 21.9467 185.99 21.72 186.604 21.72C187.244 21.72 187.777 21.76 188.204 21.84C188.63 21.8933 189.097 22 189.604 22.16Z" fill="white"/>
<path d="M0 15.7463C0 7.04985 7.06701 0 15.7846 0H41.2154C49.933 0 57 7.04985 57 15.7463V40.2537C57 48.9502 49.933 56 41.2154 56H15.7846C7.06701 56 0 48.9501 0 40.2537V15.7463Z" fill="white"/>
<path d="M1 16.1839C1 7.79807 7.81905 1 16.2308 1H40.7692C49.181 1 56 7.79807 56 16.1839V39.8161C56 48.2019 49.181 55 40.7692 55H16.2308C7.81905 55 1 48.2019 1 39.8161V16.1839Z" fill="#00D563"/>
<path d="M29.5003 33.0819H39.3393C40.8737 33.0819 41.9669 33.2731 42.619 33.6555C43.3095 34.0379 43.7698 34.5924 44 35.319C44.2301 36.0456 44.3452 37.0016 44.3452 38.1871C44.3452 39.3725 44.2301 40.3286 44 41.0551C43.7698 41.7817 43.367 42.298 42.7916 42.6039C42.2163 42.8716 41.6984 43.0437 41.2381 43.1202C40.8162 43.1584 40.1641 43.1775 39.2818 43.1775H18.5104C17.1679 43.1775 15.9979 42.6804 15.0006 41.6861C14.0032 40.6919 13.5046 39.5064 13.5046 38.1297C13.5046 36.753 14.0032 35.5867 15.0006 34.6307C15.9979 33.6364 17.5323 32.2215 19.6036 30.3859C21.675 28.5503 23.5546 26.906 25.2424 25.4528C26.9302 23.9614 27.8508 23.1393 28.0043 22.9863H19.8913C17.7049 22.9863 16.324 22.623 15.7486 21.8964C15.0965 21.0551 14.7704 19.9461 14.7704 18.5695C14.7704 17.1928 14.8663 16.1794 15.0581 15.5293C15.2499 14.841 15.4801 14.3438 15.7486 14.0379C16.0171 13.6937 16.4007 13.4261 16.8993 13.2349C17.5514 13.0436 18.5488 12.948 19.8913 12.948H38.5913C39.9339 12.948 41.1039 13.4261 42.1012 14.3821C43.0985 15.3381 43.5972 16.5427 43.5972 17.9958C43.5972 19.4108 43.0218 20.6727 41.871 21.7817C40.7203 22.8907 36.5967 26.6574 29.5003 33.0819Z" fill="#1E1E1E"/>
<path d="M27.774 31.9887H37.0343C38.4784 31.9887 39.5073 32.1686 40.1211 32.5285C40.7709 32.8884 41.2042 33.4103 41.4208 34.0942C41.6374 34.778 41.7457 35.6778 41.7457 36.7935C41.7457 37.9093 41.6374 38.809 41.4208 39.4929C41.2042 40.1767 40.8251 40.6626 40.2835 40.9505C39.742 41.2025 39.2546 41.3644 38.8214 41.4364C38.4243 41.4724 37.8105 41.4904 36.9802 41.4904H17.4306C16.167 41.4904 15.0659 41.0225 14.1272 40.0867C13.1886 39.151 12.7192 38.0352 12.7192 36.7395C12.7192 35.4438 13.1886 34.3461 14.1272 33.4463C15.0659 32.5105 16.51 31.1789 18.4595 29.4513C20.4091 27.7237 22.1781 26.176 23.7666 24.8084C25.3551 23.4047 26.2216 22.6309 26.366 22.4869H18.7303C16.6725 22.4869 15.3728 22.145 14.8312 21.4612C14.2175 20.6693 13.9106 19.6256 13.9106 18.3299C13.9106 17.0342 14.0009 16.0804 14.1814 15.4686C14.3619 14.8207 14.5785 14.3528 14.8312 14.0649C15.0839 13.741 15.445 13.489 15.9143 13.3091C16.5281 13.1291 17.4667 13.0391 18.7303 13.0391H36.3303C37.5939 13.0391 38.695 13.489 39.6337 14.3888C40.5724 15.2886 41.0417 16.4223 41.0417 17.79C41.0417 19.1217 40.5002 20.3094 39.4171 21.3532C38.334 22.3969 34.453 25.9421 27.774 31.9887Z" fill="white"/>
</svg>
